<svg version="1.1" xmlns="http://www.w3.org/2000/svg" xmlns:xlink="http://www.w3.org/1999/xlink" width="192" height="192" viewBox="0 0 192 192">
  <g fill="none" fill-rule="nonzero" stroke="none" stroke-width="1" stroke-linecap="butt" stroke-linejoin="miter" stroke-miterlimit="10" stroke-dasharray="" stroke-dashoffset="0" font-family="none" font-weight="none" font-size="none" text-anchor="none" style="mix-blend-mode: normal">
    <rect x="0" y="0" width="192" height="192" fill="none"/>
    <path d="M136.241,67.574c6.9332,9.61214 11.4786,19.46133 13.5937,29.42633c0.05507,-0.00022 0.11017,-0.00033 0.1653,-0.00033c22.09139,0 40,17.90861 40,40c0,22.09139 -17.90861,40 -40,40c-10.99848,0 -20.96019,-4.43896 -28.1913,-11.62306c-3.03926,2.0678 -6.25366,3.89085 -9.6147,5.44506l-2.191,1.015l-0.06,-0.026c-8.236,3.449 -16.915,5.193 -25.8287,5.193c-0.7972,0 -1.5944,-0.013 -2.3958,-0.043c-7.0637,-0.243 -13.9909,-1.582 -20.59,-3.977l-0.0213,0.008l-0.4987,-0.175l-1.6498,-0.665c-12.6694,-5.102 -23.3694,-13.846 -30.9446,-25.283c-7.7415,-11.693 -11.5739,-25.309 -11.0837,-39.377c0.3794,-10.832 3.4104,-21.5234 8.7646,-30.9147l1.1425,-2.0036l2.221,-0.6223c5.188,-1.4622 10.5593,-2.1059 15.9604,-1.9184c0.1663,0.0043 0.2899,0.0086 0.4135,0.0171c1.475,0.0341 2.9628,0.1108 4.4249,0.2302c0.2345,-1.7393 0.5159,-3.4743 0.8441,-5.1624c1.2533,-7.5028 3.6448,-14.7881 7.3067,-22.2398c5.9723,-12.5245 14.8861,-23.7615 25.7694,-32.4792l4.2625,-3.41892l3.364,3.95172l0.068,0.0299l0.154,0.2259l0.788,0.9293l1.454,1.7137c0.912,1.0785 2.067,2.4427 3.414,4.037c2.443,2.8903 7.405,8.7774 13.19,15.7132c13.326,15.9903 22.001,26.7542 25.774,31.989zM86.655,114.449c-2.8775,-10.917 -8.3554,-19.0679 -16.2759,-24.2303c-2.7538,-1.7947 -5.8445,-3.2526 -9.2079,-4.3567c0.7247,8.6495 3.0139,18.002 6.8207,27.833c3.5552,9.191 9.3827,17.814 17.3288,25.658c3.1803,-7.831 3.6323,-16.199 1.3343,-24.908zM88.1,156.605c-2.515,3.193 -5.3968,6.19 -8.6025,8.953c0.8739,0.072 1.7436,0.123 2.6132,0.153c5.6271,0.2 11.1903,-0.443 16.5833,-1.91c-3.662,-2.217 -7.213,-4.625 -10.59,-7.196zM97.538,111.576c3.313,12.546 2.183,24.486 -3.35,35.515c6.863,5.315 13.326,8.969 17.776,11.19c1.03507,-0.59748 2.04984,-1.22756 3.04275,-1.8888c-3.19,-5.74408 -5.00675,-12.35598 -5.00675,-19.3922c0,-18.15504 12.09512,-33.48511 28.667,-38.37186c-1.86114,-8.20346 -5.72117,-16.39091 -11.548,-24.46794c-4.523,-6.2793 -16.246,-20.5217 -25.288,-31.3666c-4.02,-4.8214 -8.441,-10.0904 -13.143,-15.662l-2.016,-2.383c-5.2221,4.7872 -9.7877,10.2182 -13.5987,16.1735l0.0213,0.0128l-0.6437,1.0615c-1.6412,2.7027 -3.0352,5.2306 -4.2715,7.733l-0.0298,0.0596c-0.8014,1.6839 -1.556,3.4274 -2.2466,5.1838c-1.7989,4.5826 -3.1886,9.3528 -4.1222,14.1742c-0.1151,0.6778 -0.2217,1.4025 -0.324,2.1912c-0.1194,0.9208 -0.2217,1.8586 -0.3027,2.8007c5.6697,1.4622 10.8321,3.7003 15.3636,6.6502c10.3291,6.7269 17.4013,17.0858 21.0163,30.7869zM79.5018,149.358c-10.1543,-9.476 -17.5548,-20.104 -22.0095,-31.609c-4.6253,-11.954 -7.2257,-23.3782 -7.7373,-33.9673c-1.5645,-0.2515 -3.1545,-0.4178 -4.7403,-0.4903c-1.0786,-0.0255 -2.2125,-0.0255 -3.3507,0l-0.584,0.0128c-2.2551,0.1151 -4.5102,0.4221 -6.7227,0.9123c-3.811,7.3706 -5.8871,15.3295 -6.177,23.6595c-0.405,11.621 2.7411,22.883 9.0929,32.573c6.2153,9.481 15.014,16.766 25.4454,21.076l0.4519,0.179c0.5627,0.23 1.1339,0.447 1.7052,0.656c3.5211,-2.148 9.5575,-6.424 14.6304,-12.997zM150.4604,150.232l-9.52222,-9.5222c1.62928,-2.8676 1.22128,-6.5788 -1.22398,-9.024c-2.93496,-2.93496 -7.69346,-2.93496 -10.62842,0c-2.93497,2.935 -2.93497,7.6934 0,10.6284c2.44526,2.4452 6.15632,2.8532 9.02398,1.224l9.52224,9.5222c2.852,2.8522 6.5856,2.8736 9.0126,0.882c2.4398,-2.002 3.0756,-5.6398 0.7142,-8.8912l-11.57282,-18.20494l-0.0416,-0.0563c-1.20522,-1.63152 -0.7052,-2.92224 0.07334,-3.5645c0.80068,-0.66048 2.25508,-0.9242 3.72188,0.54254l6.8462,6.84626c0.781,0.78104 2.0474,0.78104 2.8284,0c0.781,-0.78106 0.781,-2.04738 0,-2.82844l-6.8462,-6.84626c-2.8862,-2.88626 -6.664,-2.8057 -9.0957,-0.79968c-2.43898,2.01202 -3.1774,5.67764 -0.7892,8.96678l11.5729,18.20494l0.0416,0.0564c1.2334,1.6696 0.7082,2.909 0.0096,3.4822c-0.7262,0.596 -2.146,0.8826 -3.6468,-0.6182zM131.9142,134.5142c1.37286,-1.3728 3.59872,-1.3728 4.97158,0c1.37286,1.3728 1.37286,3.5988 0,4.9716c-1.37286,1.3728 -3.59872,1.3728 -4.97158,0c-1.37286,-1.3728 -1.37286,-3.5988 0,-4.9716zM160.4,131.80002c-2.8718,2.87178 -2.8718,7.52818 0,10.39998c2.8718,2.872 7.5282,2.872 10.4,0c2.872,-2.8718 2.872,-7.5282 0,-10.39998c-2.8718,-2.87188 -7.5282,-2.87188 -10.4,0z" fill="#ffffff"/>
  </g>
</svg>
